<?xml version="1.0" encoding="utf-8"?>
<svg viewBox="0 0 500 500" width="500" height="500" xmlns="http://www.w3.org/2000/svg">
  <path style="" d="M 2.719 11.13 C 2.719 11.13 482.027 11.255 481.968 11.255 C 481.968 11.255 283.559 136.257 282.63 136.538 L 138.14 135.696 C 138.14 135.696 139.055 226.092 139.055 226.153 L 3.459 311.031 L 2.719 11.13 Z" transform="matrix(1, -0.000055, 0.000055, 1, -0.008858, 0.013329)"/>
  <path style="visibility: hidden;" d="M 18.062 483.049 L 214.843 358.77 C 214.843 358.77 361.405 359.354 361.405 359.474 C 361.405 359.594 361.707 269.331 361.707 269.331 L 497.049 184.401 L 497.779 484.862 L 18.062 483.049 Z" transform="matrix(1, -0.000055, 0.000055, 1, -0.018404, 0.014185)"/>
</svg>