<svg xmlns="http://www.w3.org/2000/svg" version="1.1" id="Vrstva_1" x="0px" y="0px" viewBox="0 0 841.9 1190.6"
     style="0 0 841.9 1190.6;" xml:space="preserve">
	<path d="M 391.5,572.8 346.2,572.7 346.2,601 304.4,627.2 304.4,534.3 453,534.3  z"/>
    <path d="M 370.5,642.3 415.8,642.3 415.8,614 457.7,587.8 457.7,680.7 309.1,680.7  z"/>
    <path d="M443.2,711.9L443.2,711.9c-1,0.6-1.4,1.8-0.7,2.9c0.7,1.1,1.9,1.4,2.9,0.7c1.1-0.6,1.4-1.8,0.8-2.9    C445.5,711.5,444.3,711.3,443.2,711.9z M432.2,721c-1.7,0.6-3.2,1.2-4.2-1c-0.7-1.6-0.7-2.6,1.1-3.4l0.3-0.1    c1.7-0.8,2.6-0.1,3.2,1l1.8-0.8c-1.1-2.2-3-3-5.8-1.8l-0.3,0.1c-2.8,1.2-3.3,3-2,5.9c1.3,2.8,3.2,2.9,4.8,2.3    c1.8-0.6,3.4-1.3,4.2,0.5c0.6,1.3,0.6,2.4-1.3,3.2c-1.7,0.8-2.4,0.1-3-0.9l-1.7,0.8c1.1,2.2,2.8,2.9,5.4,1.7    c2.8-1.3,3.4-3.1,2.3-5.6C436,720.4,433.8,720.5,432.2,721z M424.2,722.2c-1-3.1-2.3-4.5-6.1-3.2c-3.9,1.3-4,3.2-3,6.3l1.6,4.9    c1,3.1,2.3,4.5,6.1,3.2c3.9-1.3,4-3.2,3-6.3L424.2,722.2z M422.3,731.7c-2.6,0.9-3.1,0-3.8-2.2l-1.6-4.9c-0.7-2.2-0.9-3.2,1.8-4    c2.6-0.9,3.1-0.1,3.8,2.2l1.6,4.9C424.8,729.9,424.9,730.9,422.3,731.7z M406.8,722.1c-3.4,0.8-4.1,2.7-3.3,5.9l2.2,9.7l1.8-0.4    l-2.2-9.7c-0.5-2.3-0.3-3.3,1.9-3.8c2.2-0.5,2.9,0.3,3.4,2.6l2.2,9.7l1.8-0.4l-2.2-9.7C411.6,722.8,410.2,721.4,406.8,722.1z     M392.2,724.7l0.2,1.7l5.7-0.8l1.7,13l1.8-0.2l-2-14.7L392.2,724.7z M378.2,725.2l0,1.7l6.1-0.1l0.1,5.3l-5.1,0.1l0,1.7l5.1-0.1    l0.1,4.5l-5.6,0.1l0,1.6l7.5-0.1l-0.2-14.8L378.2,725.2z M375.3,725l-0.9,1.8l-2,4.2l-1.4-4.4l-0.7-1.9l-2-0.1l2.7,7.7l-3.7,7.1    l2,0.1l1.4-2.7l1.5-3.2l1.1,3.4l1,2.9l2,0.1l-2.7-7.6l3.7-7.2L375.3,725z M359.1,730.2l-0.5,4l-1-8.7l-0.9-0.2l-4.3,7.6l1.1-3.9    l1.4-6.8l-1.8-0.4l-2.9,14.5l2.1,0.4l4.1-7.5l1,8.5l2.1,0.4l2.9-14.5l-1.8-0.4L359.1,730.2z M349.8,721l-1.5,2.4l-4.2-1.3l0.1-2.8    l-1.8-0.5l-0.5,15.3l1.8,0.5l8-13L349.8,721z M345.7,727.7l-2.3,4.3l0.4-4.8l0.2-3.2l3.3,1L345.7,727.7z M337.2,716.7    c-4-1.6-4.9-0.1-6,2.6l1.6,0.6c0.9-2.2,1.4-2.6,3.7-1.6c2.3,0.9,2.3,1.9,1.5,4.1l-1.9,4.7c-0.9,2.2-1.5,2.9-3.9,2    c-2.3-0.9-2.3-1.8-1.7-3.5l-1.7-0.7c-1,2.7-0.9,4.3,2.7,5.7c3.7,1.5,5,0.1,6.2-2.9l1.9-4.7C340.9,720.1,341.2,718.3,337.2,716.7z     M329.2,713.3l-2.8,5.5l-4.4-2.3l2.8-5.5l-1.6-0.8l-6.8,13.1l1.6,0.8l3.1-6.1l4.4,2.3l-3.1,6.1l1.7,0.9l6.8-13.1L329.2,713.3z     M319.3,707.8l-7.6,12.7l1.6,1l7.6-12.7L319.3,707.8z M315.5,705.4l-3.3,4.7l-2.7,4l2.1-11.5l-1.4-1l-8.5,12.1l1.5,1l3.6-5.2    l2.7-4.3l-2.4,12.2l1.4,1l8.5-12.1L315.5,705.4z M307.6,699.6l-2.3,1.6l-3.4-2.8l1.2-2.6l-1.4-1.2l-6.5,13.8l1.4,1.2l12.5-8.8    L307.6,699.6z M301.2,704.1l-3.9,3.1l2.3-4.3l1.4-2.9l2.7,2.2L301.2,704.1z M292.8,691.5c-0.8-0.9-2.1-1-3-0.1    c-0.9,0.9-0.9,2.1-0.1,3c0.8,0.9,2.1,1,3,0.1C293.7,693.6,293.7,692.4,292.8,691.5L292.8,691.5z M282.9,675.9l3.7,4.9l-4.3,3.2    l-3.1-4.1l-1.4,1l3.1,4.1l-3.6,2.7l-3.4-4.5l-1.3,1l4.5,6l11.8-8.9l-4.8-6.3L282.9,675.9z M275.5,674.1c-0.8-1.6-1.7-3,0.4-4.3    c1.5-0.9,2.5-1.1,3.5,0.6l0.2,0.3c1,1.6,0.5,2.6-0.5,3.3l1,1.7c2.1-1.4,2.6-3.4,1-6l-0.2-0.3c-1.6-2.6-3.4-2.9-6.1-1.2    c-2.6,1.6-2.4,3.6-1.6,5.1c0.8,1.7,1.8,3.2,0,4.3c-1.3,0.8-2.3,0.9-3.4-0.8c-1-1.6-0.5-2.4,0.5-3.1l-1-1.6c-2,1.4-2.5,3.1-1,5.6    c1.6,2.6,3.5,2.9,5.8,1.5C276.6,677.8,276.3,675.7,275.5,674.1z M276.7,662.3l-0.8-1.6l-11.6,6l-1.4-2.7l-1.5,0.8l3.7,7.1l1.5-0.8    l-1.4-2.7L276.7,662.3z M261.5,655.2c-1.6,0.6-2.6,0.1-3.1-1.2c-0.6-1.5-0.1-2.4,1.2-2.9c3.3-1.3,4.1,5.2,9.9,2.9l2.7-1l-2.8-7.5    l-1.7,0.6l2.2,5.7l-1.1,0.4c-4.9,1.9-4.9-4.8-9.9-2.9c-2.5,0.9-3,2.8-2.1,5.1c0.9,2.3,2.6,3.4,5.3,2.4L261.5,655.2z M258.5,646.7    l6.4-1.8c2.9-0.8,3.8-2.3,3-5.1c-0.8-2.6-2.3-3.4-5.2-2.6l-6.4,1.8c-2.9,0.8-3.4,2.7-2.8,4.9C254.1,646.3,255.6,647.6,258.5,646.7    z M255,643.5c-0.4-1.3-0.2-2.1,1.7-2.7l6.4-1.8c2-0.6,2.7,0,3.1,1.3c0.4,1.6,0.1,2.3-1.9,2.9L258,645    C256,645.5,255.4,644.8,255,643.5z M252.9,635.1l11.4-2.4l0.5,2.3l1.5-0.3l-1.3-6.4l-1.5,0.3l0.5,2.2l-13,2.7l0.8,3.6l1.6-0.3    L252.9,635.1z M254,628.6l-0.2-1.7c-1.9,0.2-2.6-0.6-2.8-1.9c-0.2-1.4,0.5-2.3,1.8-2.5c1.4-0.2,2.6,1.1,2.7,2.2l0.1,1l1.6-0.2    l-0.1-1c-0.2-1.4,0.3-2.6,2.4-2.9c2-0.3,2.8,0.5,3,2c0.2,1.6-0.4,2.3-2.2,2.5l0.2,1.8c2.8-0.4,4.1-1.6,3.7-4.6    c-0.4-2.8-2.3-4.1-5-3.7c-2,0.3-2.9,1.1-3.3,2.6c-0.8-1.4-2.3-1.7-3.5-1.5c-2.5,0.3-3.5,2.2-3.2,4.4    C249.8,627.8,251.3,628.9,254,628.6z M257.1,607.5c-1.3,0-2.1,1-2.1,2.1c0,1.2,0.9,2.1,2.1,2.1c1.3,0,2.1-1,2.1-2.2l0,0    C259.2,608.4,258.4,607.5,257.1,607.5z M252.6,598.7c2.8,0.3,3.8-1.6,4.2-3.3c0.3-1.8,0.5-3.4,2.9-3.2c1.7,0.2,2.6,0.7,2.4,2.7    l0,0.4c-0.2,1.9-1.2,2.3-2.5,2.3l-0.2,2c2.5,0.1,4.1-1.1,4.4-4.1l0-0.4c0.3-3-0.9-4.4-4.1-4.7c-3.1-0.3-4.1,1.4-4.4,3    c-0.4,1.8-0.5,3.6-2.6,3.4c-1.5-0.2-2.4-0.6-2.2-2.7c0.2-1.8,1.1-2.2,2.3-2.1l0.2-1.9c-2.4-0.1-3.9,0.9-4.2,3.9    C248.6,597.1,249.9,598.4,252.6,598.7z M254.8,586.9l5.1,1c3.2,0.6,5,0.3,5.8-3.7c0.8-4-0.8-5-3.9-5.7l-5.1-1    c-3.2-0.6-5-0.3-5.8,3.7C250,585.2,251.6,586.2,254.8,586.9z M252.5,581.5c0.5-2.7,1.5-2.7,3.8-2.2l5.1,1c2.3,0.5,3.2,0.8,2.6,3.5    s-1.5,2.7-3.8,2.3l-5.1-1C252.8,584.6,251.9,584.2,252.5,581.5z M268.5,572.8c1-3.4-0.3-4.9-3.4-5.8l-9.5-2.9l-0.5,1.8l9.5,2.9    c2.2,0.7,3,1.4,2.3,3.5s-1.7,2.4-3.9,1.7l-9.5-2.9l-0.5,1.8l9.5,2.9C265.5,576.7,267.5,576.2,268.5,572.8z M273.6,559l-1.6-0.6    l-2.2,5.3l-12.1-5l-0.7,1.7l13.7,5.6L273.6,559z M280.1,546.6l-1.5-0.8l-3,5.3l-4.7-2.6l2.5-4.5l-1.5-0.8l-2.5,4.5l-3.9-2.2    l2.7-4.9l-1.4-0.8l-3.6,6.5l12.9,7.2L280.1,546.6z M280.6,545.8l1.1-1.7l-1.1-1.7l-2.6-3.8l4.6,1l2,0.4l1.1-1.7l-8-1.5l-4.3-6.8    l-1.1,1.7l1.7,2.6l2,2.9l-3.5-0.8l-3-0.5l-1.1,1.7l7.9,1.4L280.6,545.8z M284.4,516.6l-1.4,1.6l4.4,7.3l-7.8-3.4l-1.4,1.6    l11.1,9.8l1.2-1.4l-5.2-4.6l-3.2-2.5l8,3.5l0.6-0.7l-4.5-7.5l2.9,2.9l5.2,4.6l1.2-1.4L284.4,516.6z M297.9,524l-1.3-2.5l3.2-3    l2.4,1.5l1.4-1.3l-13-8l-1.4,1.3l7.3,13.4L297.9,524z M294.2,517.1l-2.6-4.2l4,2.8l2.7,1.8l-2.5,2.4L294.2,517.1z M301.2,514.3    c2,2.5,3.4,3.7,6.8,1s2.5-4.3,0.7-6.5l-1.4,1.1c1.5,1.8,1.5,2.5-0.5,4.1c-2,1.6-2.8,1.1-4.3-0.8l-3.1-4c-1.5-1.8-1.8-2.7,0.2-4.3    c1.9-1.5,2.7-1.1,3.8,0.3l1.4-1.1c-1.8-2.2-3.3-2.9-6.3-0.5c-3.1,2.5-2.6,4.3-0.6,6.8L301.2,514.3z M314.9,510.1l-3.4-5.2l4.2-2.7    l3.4,5.2l1.5-1l-8-12.4l-1.5,1l3.7,5.7l-4.2,2.7l-3.7-5.7l-1.6,1l8,12.4L314.9,510.1z M324.6,504.2l-7.2-12.9l-1.6,0.9l7.2,12.9    L324.6,504.2z M328.5,502.1l-2.5-5.2l-2.2-4.3l8.9,7.5l1.5-0.7l-6.3-13.4l-1.6,0.8l2.7,5.7l2.4,4.4l-9.4-8.1l-1.6,0.7l6.3,13.4    L328.5,502.1z M344.9,495.4l-8.8-12.5l-1.7,0.6l1.4,15.2l1.8-0.7l-0.2-2.8l4.2-1.5l1.6,2.3L344.9,495.4z M337.1,493.5l-0.4-3.2    l-0.7-4.9l2.6,4.1l1.8,2.7L337.1,493.5z M351.9,489.3L351.9,489.3c1.2-0.3,1.9-1.3,1.6-2.5c-0.3-1.2-1.4-1.9-2.6-1.6    c-1.2,0.3-1.9,1.3-1.6,2.6C349.6,489,350.7,489.6,351.9,489.3z M370.4,488.6l-6.1,0.7l-0.6-5.3l5.1-0.6l-0.2-1.7l-5.1,0.6    l-0.5-4.4l5.6-0.7l-0.2-1.6l-7.4,0.9l1.8,14.7l7.9-1L370.4,488.6z M375.6,483c1.8,0.1,3.4,0.1,3.5,2.5c0.1,1.7-0.3,2.7-2.3,2.7    l-0.4,0c-1.9,0.1-2.5-0.9-2.6-2.1l-2,0.1c0.2,2.5,1.7,3.9,4.7,3.8l0.4,0c3-0.1,4.2-1.5,4.1-4.7c-0.1-3.1-1.9-3.9-3.6-4    c-1.9-0.1-3.6,0-3.7-2.1c-0.1-1.5,0.3-2.4,2.4-2.5c1.8-0.1,2.3,0.8,2.4,2l1.9-0.1c-0.2-2.4-1.5-3.8-4.4-3.6    c-3.1,0.1-4.3,1.6-4.2,4.3C371.9,482.2,373.9,482.9,375.6,483z M382.8,476.8l3.1,0.1l-0.6,13l1.8,0.1l0.6-13l3.1,0.1l0.1-1.7    l-8-0.4L382.8,476.8z M403.6,490.2l-6-1l0.2-1.1c0.8-5.2,6.6-1.9,7.4-7.2c0.4-2.6-0.9-4-3.4-4.4c-2.4-0.4-4.3,0.6-4.7,3.4l1.8,0.3    c0.3-1.7,1.2-2.3,2.6-2.1c1.5,0.2,2.1,1.1,1.9,2.5c-0.6,3.5-6.5,1-7.5,7.1l-0.5,2.9l7.9,1.3L403.6,490.2z M409.1,493.5    c2.7,0.7,4.1-0.3,4.8-3.2l1.6-6.5c0.7-2.9-0.6-4.3-2.8-4.9c-2.3-0.6-4.2,0-4.9,2.9l-1.6,6.5C405.5,491.4,406.3,492.8,409.1,493.5z     M408,488.8l1.6-6.5c0.5-2,1.4-2.1,2.8-1.8c1.3,0.3,1.9,0.9,1.5,2.8l-1.6,6.5c-0.5,2-1.4,2.4-2.7,2    C408,491.5,407.5,490.8,408,488.8z M414.8,493.2l-0.5,1.5l6.2,2l0.5-1.5l-2.2-0.7l4.1-12.6l-3.5-1.2l-0.5,1.6l1.8,0.6l-3.6,11.1    L414.8,493.2z M425.2,498.7c2.6,1.1,4.6,0.1,5.7-2.5c0.8-1.9,0.5-3.1-0.7-4.2c1.6,0,2.6-1.2,3.1-2.2c1-2.4-0.2-4.1-2.2-5    c-2.5-1-4.2-0.2-5.3,2.3l1.6,0.7c0.7-1.7,1.8-1.9,3-1.4c1.3,0.6,1.7,1.6,1.2,2.8c-0.5,1.3-2.2,1.7-3.2,1.3l-1-0.4l-0.6,1.5l1,0.4    c1.3,0.5,2.1,1.6,1.3,3.6c-0.8,1.8-1.8,2.1-3.2,1.5c-1.5-0.6-1.8-1.5-1.1-3.1l-1.7-0.7C422,495.8,422.5,497.5,425.2,498.7z     M442.5,500.3c0.6-1.1,0.2-2.3-0.8-2.9c-1.1-0.6-2.3-0.3-2.9,0.8c-0.6,1.1-0.2,2.3,0.9,2.9l0,0    C440.7,501.7,441.9,501.4,442.5,500.3z M455.9,511.2c1.8-2.5,0.9-4.2-0.4-5.4c-1.4-1.2-2.9-2.3-1.6-3.9c0.9-1.2,1.7-1.7,3.4-0.5    c1.5,1.1,1.3,2,0.7,3.1l1.5,1.1c1.3-2.1,1.2-3.9-1.2-5.6c-2.5-1.8-4.4-1.4-6,0.8c-1.7,2.3-0.5,4.1,0.8,5.2    c1.4,1.2,2.7,2.2,1.3,4.1c-1,1.4-1.9,1.9-3.5,0.8l-0.3-0.2c-1.5-1.1-1.4-2.2-0.8-3.3l-1.6-1.2c-1.4,2.1-1.1,4.1,1.3,5.9l0.3,0.2    C452.3,514.2,454.1,513.8,455.9,511.2z M458.4,519.4c3,2.7,4.8,1.9,6.9-0.6l3.4-3.9c2.1-2.4,2.8-4.2-0.3-6.9    c-3-2.7-4.8-1.9-6.9,0.6l-3.4,3.9C456,514.9,455.4,516.7,458.4,519.4z M459.5,513.7l3.4-3.9c1.5-1.8,2.3-2.3,4.4-0.5    c2.1,1.8,1.6,2.7,0,4.4l-3.4,3.9c-1.5,1.8-2.3,2.3-4.4,0.5C457.5,516.3,457.9,515.4,459.5,513.7z M466.8,527.5    c2.4,2.6,4.4,2.1,6.7-0.1l7.3-6.8l-1.3-1.3l-7.3,6.8c-1.7,1.6-2.7,1.9-4.2,0.2c-1.6-1.7-1.2-2.6,0.5-4.2l7.3-6.8l-1.3-1.3    l-7.3,6.8C465,523,464.4,524.9,466.8,527.5z M476.3,538.8l1.3-1l-3.5-4.6l10.3-8l-1.1-1.5l-11.7,9.1L476.3,538.8z M483.8,550.7    l1.5-0.9l-3.2-5.2l4.6-2.7l2.6,4.4l1.5-0.9l-2.6-4.4l3.8-2.3l2.9,4.8l1.4-0.8l-3.8-6.4l-12.7,7.6L483.8,550.7z M484.2,551.4    l0.9,1.8l2-0.1l4.6-0.4l-3.1,3.5l-1.3,1.5l0.9,1.8l5.3-6.2l8-0.4l-0.9-1.8l-3.1,0.1l-3.5,0.3l2.4-2.6l2-2.3l-0.9-1.8l-5.2,6.2    L484.2,551.4z M491.2,566.9l6.6-2.2l3.7-1.6l-7,5.2l0.3,0.8l8.7-0.1l-3.9,1l-6.6,2.2l0.6,1.7l14-4.8l-0.7-2l-8.5,0.1l6.9-5.1    l-0.7-2l-14,4.8L491.2,566.9z M494.5,577.4l2.8,0.1l1,4.3l-2.5,1.4l0.4,1.8l13.4-7.2l-0.4-1.8l-15.3-0.4L494.5,577.4z     M502.3,577.5l4.9-0.1l-4.4,2.1l-2.9,1.5l-0.8-3.4L502.3,577.5z M506.3,584.3l-5,0.7c-3.2,0.5-4.9,1.1-4.3,5.4    c0.6,4.3,2.4,4.3,5.2,3.9l-0.3-1.7c-2.3,0.3-2.9,0-3.3-2.4c-0.4-2.5,0.5-3,2.8-3.3l5-0.7c2.3-0.3,3.3-0.2,3.6,2.4    c0.4,2.4-0.4,2.9-2.1,3.2l0.3,1.8c2.8-0.5,4.1-1.4,3.6-5.2C511.3,584.3,509.5,583.8,506.3,584.3z M498,599l6.2-0.3l0.2,4.9    l-6.2,0.3l0.1,1.8l14.7-0.7l-0.1-1.8l-6.8,0.3l-0.2-4.9l6.8-0.3l-0.1-1.9l-14.8,0.7L498,599z M498.3,610.3l14.8,0.2l0-1.9    l-14.8-0.2L498.3,610.3z M498.1,614.8l5.8,0.5l4.8,0.3l-11,4l-0.1,1.7l14.7,1.2l0.1-1.8l-6.3-0.5l-5-0.1l11.7-4.1l0.1-1.7    l-14.7-1.2L498.1,614.8z M497.1,624.6l2.6,1.2l-0.7,4.4l-2.8,0.3l-0.3,1.9L511,631l0.3-1.8l-13.9-6.4L497.1,624.6z M501.3,626.6    l2.9,1.3l4.6,1.8l-4.9,0.2l-3.2,0.2L501.3,626.6z M501.6,642.6c0.3-1.2-0.2-2.3-1.4-2.7c-1.2-0.4-2.3,0.3-2.6,1.5l0,0    c-0.3,1.1,0.2,2.3,1.4,2.6C500.2,644.4,501.3,643.8,501.6,642.6z M487.5,657.2l1.6,0.7l2.4-5.6l4.9,2.1l-2,4.7l1.6,0.7l2-4.7    l4.1,1.7l-2.2,5.2l1.5,0.6l2.9-6.9l-13.6-5.8L487.5,657.2z M496.3,663.7c-2.5-1.3-4.2,0-5.1,1.5c-1,1.6-1.8,2.9-3.9,1.8    c-1.5-0.8-2.2-1.6-1.2-3.4l0.2-0.3c0.9-1.7,2-1.7,3.1-1.2l0.9-1.7c-2.3-1.1-4.2-0.5-5.7,2.1l-0.2,0.3c-1.4,2.7-0.8,4.4,2,5.9    c2.7,1.4,4.3,0.3,5.3-1.1c1-1.6,1.9-3.1,3.7-2.2c1.3,0.7,1.9,1.5,1,3.3c-0.9,1.6-1.8,1.6-2.9,1.1l-0.9,1.7c2.2,1,4,0.6,5.4-2    C499.4,666.7,498.7,665,496.3,663.7z M491.3,677.1l-11-7l-1,1.5l11,7l-1.7,2.6l1.4,0.9l4.3-6.7l-1.4-0.9L491.3,677.1z M483,685.3    l-1.1,1.4c1.3,1.1,1.4,2.2,0.5,3.3c-1,1.2-2,1.3-3.1,0.4c-2.8-2.2,2.4-6.1-2.4-10l-2.3-1.8l-5,6.2l1.4,1.1l3.9-4.8l0.9,0.7    c4.1,3.3-1.7,6.7,2.5,10c2,1.7,3.9,1.2,5.5-0.7C485.2,689.2,485.3,687.1,483,685.3z M471.2,689c-2.2-2.1-3.9-2.1-5.9,0    c-1.9,2-1.8,3.7,0.4,5.8l4.8,4.6c2.1,2.1,4,1.6,5.6,0c1.7-1.7,2.1-3.7-0.1-5.7L471.2,689z M475,698.2c-0.9,1-1.7,1.2-3.2-0.2    l-4.8-4.6c-1.5-1.4-1.4-2.3-0.4-3.3c1.1-1.2,2-1.2,3.4,0.2l4.8,4.6C476.3,696.3,475.9,697.2,475,698.2z M468.8,704.3l-7.8-8.6    l1.8-1.6l-1-1.2l-4.8,4.4l1,1.2l1.7-1.5l8.9,9.9l2.8-2.5l-1.1-1.2L468.8,704.3z M461.3,707.7c1.2,1.5,0.8,2.5-0.3,3.3    c-1.2,0.9-2.2,0.7-3-0.3c-0.9-1.1-0.3-2.8,0.5-3.5l0.8-0.6l-1-1.3l-0.8,0.6c-1.1,0.9-2.4,1-3.7-0.6c-1.2-1.6-1-2.6,0.3-3.6    c1.3-1,2.2-0.8,3.3,0.6l1.4-1.1c-1.8-2.3-3.5-2.7-5.8-0.9c-2.3,1.8-2.4,4-0.7,6.2c1.3,1.6,2.4,1.9,3.9,1.5    c-0.8,1.4-0.3,2.9,0.4,3.8c1.6,2,3.7,1.9,5.4,0.5c2.1-1.7,2.3-3.6,0.7-5.7L461.3,707.7z"/>
</svg>